<?xml version="1.0" standalone="no"?><!DOCTYPE svg PUBLIC "-//W3C//DTD SVG 1.1//EN" "http://www.w3.org/Graphics/SVG/1.1/DTD/svg11.dtd"><svg t="1628776550305" class="icon" viewBox="0 0 1024 1024" version="1.1" xmlns="http://www.w3.org/2000/svg" p-id="11379" xmlns:xlink="http://www.w3.org/1999/xlink" width="32" height="32"><defs><style type="text/css"></style></defs><path d="M334.016 727.04a32 32 0 1 0 0-64 32 32 0 0 0 0 64z m0-183.04a32 32 0 1 0 0-64 32 32 0 0 0 0 64z m0-182.016a32 32 0 1 0 0-64 32 32 0 0 0 0 64z m478.976-279.04H211.008c-37.568 0.064-67.968 30.528-68.032 68.032v722.048c0.064 37.504 30.464 67.968 68.032 67.968h601.984c37.568 0 67.968-30.464 68.032-67.968V150.976c-0.064-37.504-30.464-67.968-68.032-67.968z m-3.968 786.048H214.976V155.008h594.048v713.984zM414.016 296h307.968c5.376 0 8 2.688 8 8v48c0 5.312-2.624 8-8 8H414.08c-5.376 0-8-2.688-8-8v-48c0-5.312 2.624-8 8-8z m0 184h307.968c5.376 0 8 2.688 8 8v48c0 5.312-2.624 8-8 8H414.08c-5.376 0-8-2.688-8-8v-48c0-5.312 2.624-8 8-8z m0 184h307.968c5.376 0 8 2.688 8 8v48c0 5.312-2.624 8-8 8H414.08c-5.376 0-8-2.688-8-8v-48c0-5.312 2.624-8 8-8z" p-id="11380" fill="#1296db"></path></svg>