<?xml version="1.0" standalone="no"?><!DOCTYPE svg PUBLIC "-//W3C//DTD SVG 1.1//EN" "http://www.w3.org/Graphics/SVG/1.1/DTD/svg11.dtd"><svg t="1628771656727" class="icon" viewBox="0 0 1024 1024" version="1.1" xmlns="http://www.w3.org/2000/svg" p-id="8475" xmlns:xlink="http://www.w3.org/1999/xlink" width="32" height="32"><defs><style type="text/css"></style></defs><path d="M927.282215 479.83544l-83.4629 0c-15.068184-158.75777-141.389194-285.078781-300.146964-300.146964L543.67235 95.835695c0-17.622356-14.285355-31.907711-31.907711-31.907711-17.622356 0-31.907711 14.285355-31.907711 31.907711l0 83.85278c-158.75777 15.068184-285.078781 141.389194-300.146964 300.146964l-83.826174 0c-17.622356 0-31.907711 14.285355-31.907711 31.907711 0 17.622356 14.285355 31.907711 31.907711 31.907711l83.826174 0c15.068184 158.75777 141.389194 285.078781 300.146964 300.146964l0 83.946924c0 17.622356 14.285355 31.907711 31.907711 31.907711 17.622356 0 31.907711-14.285355 31.907711-31.907711l0-83.946924c158.75777-15.068184 285.078781-141.389194 300.146964-300.146964l83.4629 0c17.622356 0 31.907711-14.285355 31.907711-31.907711C959.189925 494.120794 944.904571 479.83544 927.282215 479.83544zM511.76464 793.112446c-155.396209 0-281.369296-125.973086-281.369296-281.369296s125.973086-281.369296 281.369296-281.369296 281.369296 125.973086 281.369296 281.369296S667.159826 793.112446 511.76464 793.112446z" p-id="8476" fill="#1296db"></path><path d="M511.76464 511.74315m-69.616544 0a68.031 68.031 0 1 0 139.233088 0 68.031 68.031 0 1 0-139.233088 0Z" p-id="8477" fill="#1296db"></path></svg>