<?xml version="1.0" standalone="no"?><!DOCTYPE svg PUBLIC "-//W3C//DTD SVG 1.1//EN" "http://www.w3.org/Graphics/SVG/1.1/DTD/svg11.dtd"><svg t="1628776508995" class="icon" viewBox="0 0 1024 1024" version="1.1" xmlns="http://www.w3.org/2000/svg" p-id="10071" xmlns:xlink="http://www.w3.org/1999/xlink" width="32" height="32"><defs><style type="text/css"></style></defs><path d="M341.065143 910.189714v-146.285714c0-53.686857-43.885714-97.572571-97.572572-97.572571h-146.285714a48.786286 48.786286 0 0 0 0 97.499428h146.285714v146.285714a48.786286 48.786286 0 1 0 97.499429 0z m-292.571429-617.910857c0 26.916571 21.796571 48.786286 48.713143 48.786286h146.285714c53.686857 0 97.572571-43.885714 97.572572-97.572572v-146.285714a48.786286 48.786286 0 0 0-97.499429 0v146.285714h-146.285714a48.786286 48.786286 0 0 0-48.786286 48.786286z m910.409143 0a48.786286 48.786286 0 0 0-48.713143-48.786286h-146.285714v-146.285714a48.786286 48.786286 0 1 0-97.499429 0v146.285714c0 53.686857 43.885714 97.572571 97.499429 97.572572h146.285714a48.786286 48.786286 0 0 0 48.713143-48.786286z m0 422.765714a48.786286 48.786286 0 0 0-48.713143-48.713142h-146.285714c-53.686857 0-97.572571 43.885714-97.572571 97.572571v146.285714a48.786286 48.786286 0 1 0 97.499428 0v-146.285714h146.285714a48.786286 48.786286 0 0 0 48.786286-48.786286z" fill="#1296db" p-id="10072"></path></svg>